<svg width="3179" height="1474" xmlns="http://www.w3.org/2000/svg" xmlns:xlink="http://www.w3.org/1999/xlink" xml:space="preserve" overflow="hidden"><g transform="translate(-19 -34)"><rect x="20.5001" y="36.4999" width="1564" height="1470" stroke="#000000" stroke-width="3.4375" stroke-linejoin="round" stroke-miterlimit="10" fill="none"/><path d="M76.5002 182C76.5002 165.156 90.1555 151.5 107 151.5L1496 151.5C1512.84 151.5 1526.5 165.156 1526.5 182L1526.5 304C1526.5 320.845 1512.84 334.5 1496 334.5L107 334.5C90.1555 334.5 76.5002 320.845 76.5002 304Z" stroke="#2F528F" stroke-width="9.16667" stroke-miterlimit="8" fill="#E2F0D9" fill-rule="evenodd"/><path d="M76.5002 588.668C76.5002 544.945 111.945 509.5 155.668 509.5L1447.33 509.5C1491.06 509.5 1526.5 544.945 1526.5 588.668L1526.5 905.333C1526.5 949.057 1491.06 984.502 1447.33 984.502L155.668 984.502C111.945 984.502 76.5002 949.057 76.5002 905.333Z" stroke="#2F528F" stroke-width="9.16667" stroke-miterlimit="8" fill="#FFF2CC" fill-rule="evenodd"/><rect x="660.5" y="626.5" width="285" height="113" stroke="#2F528F" stroke-width="9.16667" stroke-miterlimit="8" fill="#8FAADC"/><text font-family="Arial,Arial_MSFontService,sans-serif" font-weight="400" font-size="55" transform="matrix(1 0 0 1 695.984 703)">Evaluate</text><rect x="294.5" y="834.5" width="285" height="113" stroke="#2F528F" stroke-width="9.16667" stroke-miterlimit="8" fill="#8FAADC"/><text font-family="Arial,Arial_MSFontService,sans-serif" font-weight="400" font-size="55" transform="matrix(1 0 0 1 364.933 911)">Direct</text><rect x="1035.5" y="834.5" width="286" height="113" stroke="#2F528F" stroke-width="9.16667" stroke-miterlimit="8" fill="#8FAADC"/><text font-family="Arial,Arial_MSFontService,sans-serif" font-weight="400" font-size="55" transform="matrix(1 0 0 1 1086.97 911)">Monitor</text><path d="M1056.22 336.48 1057.95 481.565 1054.51 481.606 1052.78 336.52ZM1069.92 476.838 1056.5 504.5 1042.42 477.166Z" fill="#3F6EC3"/><path d="M489.219 338.49 490.084 485.573 486.646 485.594 485.781 338.51ZM502.088 480.919 488.5 508.5 474.588 481.081Z" fill="#3F6EC3"/><text font-family="Arial,Arial_MSFontService,sans-serif" font-style="italic" font-weight="400" font-size="48" transform="matrix(1 0 0 1 234.876 405)">Business </text><text font-family="Arial,Arial_MSFontService,sans-serif" font-style="italic" font-weight="400" font-size="48" transform="matrix(1 0 0 1 208.316 463)">Imperatives</text><text font-family="Arial,Arial_MSFontService,sans-serif" font-style="italic" font-weight="400" font-size="48" transform="matrix(1 0 0 1 1095.55 408)">Business </text><text font-family="Arial,Arial_MSFontService,sans-serif" font-style="italic" font-weight="400" font-size="48" transform="matrix(1 0 0 1 1123.55 466)">Needs</text><text font-family="Arial,Arial_MSFontService,sans-serif" font-weight="400" font-size="55" transform="matrix(1 0 0 1 117.982 644)">Governing Body/ </text><text font-family="Arial,Arial_MSFontService,sans-serif" font-weight="400" font-size="55" transform="matrix(1 0 0 1 110.42 710)">Top Management</text><text font-family="Arial,Arial_MSFontService,sans-serif" font-weight="700" font-size="55" transform="matrix(1 0 0 1 143.522 104)">ISO 38500: Governance of Information Technology</text><path d="M59.5 1218.5C59.5 1189.78 82.7816 1166.5 111.501 1166.5L1496.5 1166.5C1525.22 1166.5 1548.5 1189.78 1548.5 1218.5L1548.5 1426.5C1548.5 1455.22 1525.22 1478.5 1496.5 1478.5L111.501 1478.5C82.7816 1478.5 59.5 1455.22 59.5 1426.5Z" stroke="#2F528F" stroke-width="9.16667" stroke-miterlimit="8" fill="#FBE5D6" fill-rule="evenodd"/><rect x="109.5" y="1368.5" width="471" height="78" stroke="#2F528F" stroke-width="9.16667" stroke-miterlimit="8" fill="#B4C7E7"/><text font-family="Arial,Arial_MSFontService,sans-serif" font-weight="400" font-size="55" transform="matrix(1 0 0 1 166.831 1427)">IT Engineering</text><rect x="1024.5" y="1367.5" width="471" height="78" stroke="#2F528F" stroke-width="9.16667" stroke-miterlimit="8" fill="#B4C7E7"/><text font-family="Arial,Arial_MSFontService,sans-serif" font-weight="400" font-size="55" transform="matrix(1 0 0 1 1093.6 1426)">IT Operations</text><rect x="569.5" y="1269.5" width="471" height="72.9999" stroke="#2F528F" stroke-width="9.16667" stroke-miterlimit="8" fill="#B4C7E7"/><text font-family="Arial,Arial_MSFontService,sans-serif" font-weight="400" font-size="55" transform="matrix(1 0 0 1 667.69 1326)">IT Services</text><text font-family="Arial,Arial_MSFontService,sans-serif" font-weight="400" font-size="55" transform="matrix(1 0 0 1 372.126 1233)">Business &amp; Operations Management</text><text font-family="Arial,Arial_MSFontService,sans-serif" font-style="italic" font-weight="400" font-size="48" transform="matrix(1 0 0 1 151.847 1065)">Strategies, </text><text font-family="Arial,Arial_MSFontService,sans-serif" font-style="italic" font-weight="400" font-size="48" transform="matrix(1 0 0 1 110.116 1123)">Plans, Policies</text><text font-family="Arial,Arial_MSFontService,sans-serif" font-style="italic" font-weight="400" font-size="48" transform="matrix(1 0 0 1 575.071 1102)">Proposals</text><text font-family="Arial,Arial_MSFontService,sans-serif" font-style="italic" font-weight="400" font-size="48" transform="matrix(1 0 0 1 1205.23 1067)">Performance</text><text font-family="Arial,Arial_MSFontService,sans-serif" font-style="italic" font-weight="400" font-size="48" transform="matrix(1 0 0 1 1205.23 1125)">Conformance</text><path d="M0.67705-1.57978 196.613 82.3931 195.259 85.5526-0.67705 1.57978ZM197.14 69.5291 217 93.0002 186.307 94.8056Z" fill="#3F6EC3" transform="matrix(-1 0 0 1 643.5 738.5)"/><path d="M929.189 737.925 1125.2 823.735 1123.82 826.884 927.811 741.074ZM1125.82 810.876 1145.5 834.5 1114.79 836.067Z" fill="#3F6EC3"/><rect x="1639.5" y="36.4999" width="1538" height="1470" stroke="#000000" stroke-width="3.4375" stroke-linejoin="round" stroke-miterlimit="10" fill="none"/><path d="M1699.5 181.5C1699.5 164.379 1713.38 150.5 1730.5 150.5L3091.5 150.5C3108.62 150.5 3122.5 164.379 3122.5 181.5L3122.5 305.5C3122.5 322.621 3108.62 336.5 3091.5 336.5L1730.5 336.5C1713.38 336.5 1699.5 322.621 1699.5 305.5Z" stroke="#2F528F" stroke-width="9.16667" stroke-miterlimit="8" fill="#E2F0D9" fill-rule="evenodd"/><rect x="2619.5" y="231.5" width="412" height="73.0002" stroke="#2F528F" stroke-width="9.16667" stroke-miterlimit="8" fill="#8FAADC"/><text font-family="Calibri,Calibri_MSFontService,sans-serif" font-weight="400" font-size="55" transform="matrix(1 0 0 1 2750.03 286)">Assure</text><path d="M1691.5 587.668C1691.5 543.945 1726.94 508.5 1770.67 508.5L3042.33 508.5C3086.06 508.5 3121.5 543.945 3121.5 587.668L3121.5 904.332C3121.5 948.055 3086.06 983.5 3042.33 983.5L1770.67 983.5C1726.94 983.5 1691.5 948.055 1691.5 904.332Z" stroke="#2F528F" stroke-width="9.16667" stroke-miterlimit="8" fill="#FFF2CC" fill-rule="evenodd"/><text font-family="Arial,Arial_MSFontService,sans-serif" font-style="italic" font-weight="400" font-size="48" transform="matrix(1 0 0 1 2013.2 401)">Requirements</text><text font-family="Arial,Arial_MSFontService,sans-serif" font-style="italic" font-weight="400" font-size="48" transform="matrix(1 0 0 1 2371.8 446)">Reports</text><text font-family="Arial,Arial_MSFontService,sans-serif" font-style="italic" font-weight="400" font-size="48" transform="matrix(1 0 0 1 2766.16 401)">Recommendations</text><text font-family="Arial,Arial_MSFontService,sans-serif" font-style="italic" font-weight="400" font-size="48" transform="matrix(1 0 0 1 2578.67 472)">Commissions</text><text font-family="Arial,Arial_MSFontService,sans-serif" font-weight="700" font-size="55" transform="matrix(1 0 0 1 1765.53 105)">ISO 27014: Governance of Information Security</text><path d="M1685.5 1218.5C1685.5 1189.78 1708.78 1166.5 1737.5 1166.5L3091.5 1166.5C3120.22 1166.5 3143.5 1189.78 3143.5 1218.5L3143.5 1426.5C3143.5 1455.22 3120.22 1478.5 3091.5 1478.5L1737.5 1478.5C1708.78 1478.5 1685.5 1455.22 1685.5 1426.5Z" stroke="#2F528F" stroke-width="9.16667" stroke-miterlimit="8" fill="#FBE5D6" fill-rule="evenodd"/><rect x="1740.5" y="1323.5" width="596" height="89" stroke="#2F528F" stroke-width="9.16667" stroke-miterlimit="8" fill="#B4C7E7"/><text font-family="Arial,Arial_MSFontService,sans-serif" font-weight="400" font-size="55" transform="matrix(1 0 0 1 1785.81 1387)">Security Engineering</text><rect x="2474.5" y="1323.5" width="614" height="89" stroke="#2F528F" stroke-width="9.16667" stroke-miterlimit="8" fill="#B4C7E7"/><text font-family="Arial,Arial_MSFontService,sans-serif" font-weight="400" font-size="55" transform="matrix(1 0 0 1 2540.48 1387)">Security Operations</text><text font-family="Arial,Arial_MSFontService,sans-serif" font-weight="400" font-size="48" transform="matrix(1 0 0 1 2509.39 205)">External Certification/ Audit</text><text font-family="Arial,Arial_MSFontService,sans-serif" font-weight="400" font-size="55" transform="matrix(1 0 0 1 1956.2 1236)">Business &amp; Operations Management</text><path d="M1.71874-0.00438568 2.23156 200.968-1.20593 200.977-1.71874 0.00438568ZM14.2511 196.354 0.571293 223.889-13.2488 196.425Z" fill="#3F6EC3" transform="matrix(-1 0 0 1 437.071 947.5)"/><path d="M802.305 1165.95 800.863 762.423 804.301 762.411 805.743 1165.94ZM788.849 767.049 802.5 739.5 816.348 766.951Z" fill="#3F6EC3"/><path d="M1.71875-2.84291e-06 1.71907 195.27-1.71843 195.27-1.71875 2.84291e-06ZM13.7503 190.686 0.000360892 218.186-13.7497 190.686Z" fill="#3F6EC3" transform="matrix(1 0 0 -1 1178.5 1165.69)"/><path d="M1.71875-3.14669e-06 1.71907 174.206-1.71843 174.206-1.71875 3.14669e-06ZM13.7503 169.623 0.000360892 197.123-13.7497 169.623Z" fill="#3F6EC3" transform="matrix(1 0 0 -1 2695.5 501.623)"/><path d="M2988.22 304.5 2988.22 484.972 2984.78 484.972 2984.78 304.5ZM3000.25 480.388 2986.5 507.888 2972.75 480.388Z" fill="#3F6EC3"/><text font-family="Arial,Arial_MSFontService,sans-serif" font-weight="400" font-size="55" transform="matrix(1 0 0 1 533.252 260)">External Stakeholders</text><text font-family="Arial,Arial_MSFontService,sans-serif" font-weight="400" font-size="55" transform="matrix(1 0 0 1 1771.58 258)">External Stakeholders</text><rect x="2266.5" y="626.5" width="285" height="113" stroke="#2F528F" stroke-width="9.16667" stroke-miterlimit="8" fill="#8FAADC"/><text font-family="Arial,Arial_MSFontService,sans-serif" font-weight="400" font-size="55" transform="matrix(1 0 0 1 2302.24 703)">Evaluate</text><rect x="1900.5" y="834.5" width="285" height="113" stroke="#2F528F" stroke-width="9.16667" stroke-miterlimit="8" fill="#8FAADC"/><text font-family="Arial,Arial_MSFontService,sans-serif" font-weight="400" font-size="55" transform="matrix(1 0 0 1 1971.18 911)">Direct</text><rect x="2642.5" y="834.5" width="285" height="113" stroke="#2F528F" stroke-width="9.16667" stroke-miterlimit="8" fill="#8FAADC"/><text font-family="Arial,Arial_MSFontService,sans-serif" font-weight="400" font-size="55" transform="matrix(1 0 0 1 2693.23 911)">Monitor</text><text font-family="Arial,Arial_MSFontService,sans-serif" font-weight="400" font-size="55" transform="matrix(1 0 0 1 1738.05 644)">Governing Body/ </text><text font-family="Arial,Arial_MSFontService,sans-serif" font-weight="400" font-size="55" transform="matrix(1 0 0 1 1730.48 710)">Top Management</text><text font-family="Arial,Arial_MSFontService,sans-serif" font-style="italic" font-weight="400" font-size="48" transform="matrix(1 0 0 1 1758.1 1065)">Strategies, </text><text font-family="Arial,Arial_MSFontService,sans-serif" font-style="italic" font-weight="400" font-size="48" transform="matrix(1 0 0 1 1716.37 1123)">Plans, Policies</text><text font-family="Arial,Arial_MSFontService,sans-serif" font-style="italic" font-weight="400" font-size="48" transform="matrix(1 0 0 1 2181.32 1102)">Proposals</text><path d="M0.67705-1.57978 196.613 82.3931 195.259 85.5526-0.67705 1.57978ZM197.14 69.5291 217 93.0002 186.307 94.8056Z" fill="#3F6EC3" transform="matrix(-1 0 0 1 2249.5 738.5)"/><path d="M2536.19 737.927 2731.21 823.701 2729.83 826.847 2534.81 741.073ZM2731.86 810.842 2751.5 834.5 2720.79 836.015Z" fill="#3F6EC3"/><path d="M1.71874-0.00438568 2.23156 200.968-1.20593 200.977-1.71874 0.00438568ZM14.2511 196.354 0.571293 223.889-13.2488 196.425Z" fill="#3F6EC3" transform="matrix(-1 0 0 1 2043.07 947.5)"/><path d="M2409.3 1165.95 2407.86 762.423 2411.3 762.411 2412.74 1165.94ZM2395.85 767.049 2409.5 739.5 2423.35 766.951Z" fill="#3F6EC3"/><path d="M1.71875-2.84291e-06 1.71907 195.27-1.71843 195.27-1.71875 2.84291e-06ZM13.7503 190.686 0.000360892 218.186-13.7497 190.686Z" fill="#3F6EC3" transform="matrix(1 0 0 -1 2784.5 1165.69)"/><text font-family="Arial,Arial_MSFontService,sans-serif" font-style="italic" font-weight="400" font-size="48" transform="matrix(1 0 0 1 2813.9 1062)">Performance</text><text font-family="Arial,Arial_MSFontService,sans-serif" font-style="italic" font-weight="400" font-size="48" transform="matrix(1 0 0 1 2813.9 1120)">Conformance</text><rect x="2163.5" y="475.5" width="379" height="93.0002" stroke="#2F528F" stroke-width="9.16667" stroke-miterlimit="8" fill="#8FAADC"/><text font-family="Arial,Arial_MSFontService,sans-serif" font-weight="400" font-size="55" transform="matrix(1 0 0 1 2184.12 541)">Communicate</text><path d="M1.71875-1.15696e-05 1.71896 30.6968-1.71854 30.6968-1.71875 1.15696e-05ZM13.7502 26.1134 0.000360892 53.6135-13.7498 26.1135Z" fill="#3F6EC3" transform="matrix(1 0 0 -1 2402.5 622.114)"/><path d="M1.71867-0.0160623 2.83259 119.174-0.604755 119.206-1.71867 0.0160623ZM14.8205 114.478 1.32808 142.106-12.6783 114.735Z" fill="#3F6EC3" transform="matrix(1 0 0 -1 2460.5 473.606)"/><path d="M1.71874-0.00711358 2.19518 115.108-1.24229 115.123-1.71874 0.00711358ZM14.2074 110.475 0.571293 138.032-13.2924 110.589Z" fill="#3F6EC3" transform="matrix(-1 0 0 1 2223.07 336.5)"/></g></svg>