<svg width="1669" height="1616" xmlns="http://www.w3.org/2000/svg" xmlns:xlink="http://www.w3.org/1999/xlink" xml:space="preserve" overflow="hidden"><g transform="translate(-772 -132)"><text font-family="Tahoma,Tahoma_MSFontService,sans-serif" font-weight="400" font-size="57" transform="matrix(1 0 0 1 1826.08 642)">1. </text><text font-family="Tahoma,Tahoma_MSFontService,sans-serif" font-weight="400" font-size="57" transform="matrix(1 0 0 1 1753.89 704)">Identify</text><path d="M1959.11 757.142C1985.1 803.253 2001.44 854.173 2007.15 906.807L2036.11 906.34 1987.59 943.057 1934.41 907.981 1963.36 907.514C1957.9 862.174 1943.56 818.359 1921.16 778.584Z" stroke="#FFFFFF" stroke-width="9.16667" stroke-miterlimit="8" fill="#ED7D31" fill-rule="evenodd"/><text font-family="Tahoma,Tahoma_MSFontService,sans-serif" font-weight="400" font-size="57" transform="matrix(1 0 0 1 1948.52 1043)">2. </text><text font-family="Tahoma,Tahoma_MSFontService,sans-serif" font-weight="400" font-size="57" transform="matrix(1 0 0 1 1884.19 1105)">Protect</text><path d="M1924.73 1177.85C1892.14 1220.33 1851.16 1255.65 1804.35 1281.59L1815.97 1308.12 1763.34 1277.61 1775.16 1214.95 1786.78 1241.47C1826.9 1218.6 1862.06 1187.94 1890.18 1151.27Z" stroke="#FFFFFF" stroke-width="9.16667" stroke-miterlimit="8" fill="#A5A5A5" fill-rule="evenodd"/><text font-family="Tahoma,Tahoma_MSFontService,sans-serif" font-weight="400" font-size="57" transform="matrix(1 0 0 1 1503.9 1330)">3. Detect</text><path d="M1462.92 1297.58C1413.9 1276.06 1369.84 1244.67 1333.46 1205.36L1310.5 1223.02 1327.54 1164.56 1391.13 1161.01 1368.18 1178.66C1399.96 1212.22 1438.11 1239.07 1480.4 1257.64Z" stroke="#FFFFFF" stroke-width="9.16667" stroke-miterlimit="8" fill="#FFC000" fill-rule="evenodd"/><text font-family="Tahoma,Tahoma_MSFontService,sans-serif" font-weight="400" font-size="57" transform="matrix(1 0 0 1 1241.19 1043)">4. </text><text font-family="Tahoma,Tahoma_MSFontService,sans-serif" font-weight="400" font-size="57" transform="matrix(1 0 0 1 1156.92 1105)">Respond</text><path d="M1229 942.01C1231.6 887.369 1245.68 833.885 1270.32 785.034L1245.76 769.684 1306.49 765.222 1332.02 823.586 1307.47 808.243C1286.67 850.668 1274.79 896.893 1272.54 944.074Z" stroke="#FFFFFF" stroke-width="9.16667" stroke-miterlimit="8" fill="#4472C4" fill-rule="evenodd"/><text font-family="Tahoma,Tahoma_MSFontService,sans-serif" font-weight="400" font-size="57" transform="matrix(1 0 0 1 1376.06 639)">5. </text><text font-family="Tahoma,Tahoma_MSFontService,sans-serif" font-weight="400" font-size="57" transform="matrix(1 0 0 1 1299.91 701)">Recover</text><path d="M1490.62 591.906C1551.69 569.407 1616.99 566.528 1679.4 583.582L1687.09 558.625 1708.66 614.169 1660.18 645.976 1667.87 621.019C1612.69 606.242 1555.08 609.246 1501.25 629.707Z" stroke="#FFFFFF" stroke-width="9.16667" stroke-miterlimit="8" fill="#70AD47" fill-rule="evenodd"/><path d="M776.5 940C776.5 496.239 1148.1 136.5 1606.5 136.5 2064.9 136.5 2436.5 496.239 2436.5 940 2436.5 1383.76 2064.9 1743.5 1606.5 1743.5 1148.1 1743.5 776.5 1383.76 776.5 940Z" stroke="#41719C" stroke-width="9.16667" stroke-miterlimit="8" fill="#FFC000" fill-rule="evenodd" fill-opacity="0.0784314"/><path d="M1106.5 960.5C1106.5 700.926 1331.03 490.5 1608 490.5 1884.97 490.5 2109.5 700.926 2109.5 960.5 2109.5 1220.07 1884.97 1430.5 1608 1430.5 1331.03 1430.5 1106.5 1220.07 1106.5 960.5Z" stroke="#41719C" stroke-width="9.16667" stroke-miterlimit="8" fill="#5B9BD5" fill-rule="evenodd" fill-opacity="0.290196"/><path d="M1389.5 956C1389.5 839.744 1486.65 745.5 1606.5 745.5 1726.35 745.5 1823.5 839.744 1823.5 956 1823.5 1072.26 1726.35 1166.5 1606.5 1166.5 1486.65 1166.5 1389.5 1072.26 1389.5 956Z" stroke="#FFFFFF" stroke-width="9.16667" stroke-miterlimit="8" fill="#70AD47" fill-rule="evenodd"/><text font-family="Arial,Arial_MSFontService,sans-serif" font-weight="700" font-size="55" text-decoration="underline" transform="matrix(1 0 0 1 1528.67 943)">Cyber </text><text font-family="Arial,Arial_MSFontService,sans-serif" font-weight="700" font-size="55" text-decoration="underline" transform="matrix(1 0 0 1 1470.64 1009)">Resilience</text><text font-family="Arial,Arial_MSFontService,sans-serif" font-weight="400" font-size="55" transform="matrix(1 0 0 1 1472.24 312)">6. Govern &amp; </text><text font-family="Arial,Arial_MSFontService,sans-serif" font-weight="400" font-size="55" transform="matrix(1 0 0 1 1489.4 371)">Administer</text><text font-family="Arial,Arial_MSFontService,sans-serif" font-weight="400" font-size="55" transform="matrix(1 0 0 1 848.601 701)">7. Acquire &amp; </text><text font-family="Arial,Arial_MSFontService,sans-serif" font-weight="400" font-size="55" transform="matrix(1 0 0 1 883.984 760)">Provision</text><text font-family="Arial,Arial_MSFontService,sans-serif" font-weight="400" font-size="55" transform="matrix(1 0 0 1 2059.43 690)">8. Operate &amp; </text><text font-family="Arial,Arial_MSFontService,sans-serif" font-weight="400" font-size="55" transform="matrix(1 0 0 1 2111.77 749)">Maintain</text><text font-family="Arial,Arial_MSFontService,sans-serif" font-weight="400" font-size="55" transform="matrix(1 0 0 1 1018.29 1440)">9. </text><text font-family="Arial,Arial_MSFontService,sans-serif" font-weight="400" font-size="55" transform="matrix(1 0 0 1 1076.43 1440)">Analyse</text><text font-family="Arial,Arial_MSFontService,sans-serif" font-weight="400" font-size="55" transform="matrix(1 0 0 1 1286.32 1440)">&amp; </text><text font-family="Arial,Arial_MSFontService,sans-serif" font-weight="400" font-size="55" transform="matrix(1 0 0 1 1038.23 1499)">Investigate</text><text font-family="Arial,Arial_MSFontService,sans-serif" font-weight="400" font-size="55" transform="matrix(1 0 0 1 1911.48 1440)">10. Train &amp; </text><text font-family="Arial,Arial_MSFontService,sans-serif" font-weight="400" font-size="55" transform="matrix(1 0 0 1 1959.12 1499)">Enable</text></g></svg>