<svg width="2491" height="761" xmlns="http://www.w3.org/2000/svg" xmlns:xlink="http://www.w3.org/1999/xlink" xml:space="preserve" overflow="hidden"><g transform="translate(-355 -123)"><rect x="1385" y="350" width="431" height="151" stroke="#000000" stroke-width="2.29167" stroke-linejoin="round" stroke-miterlimit="10" fill="none"/><text fill="#1E3AF8" font-family="Arial,Arial_MSFontService,sans-serif" font-style="italic" font-weight="400" font-size="38" transform="matrix(1 0 0 1 1425.34 395)">Business &amp; Industrial </text><text fill="#1E3AF8" font-family="Arial,Arial_MSFontService,sans-serif" font-style="italic" font-weight="400" font-size="38" transform="matrix(1 0 0 1 1421.33 440)">Operations, Services, </text><text fill="#1E3AF8" font-family="Arial,Arial_MSFontService,sans-serif" font-style="italic" font-weight="400" font-size="38" transform="matrix(1 0 0 1 1405.59 485)">Processes, Capabilities</text><rect x="1353" y="194" width="496" height="68.0001" stroke="#000000" stroke-width="2.29167" stroke-linejoin="round" stroke-miterlimit="10" fill="none"/><text fill="#1E3AF8" font-family="Arial,Arial_MSFontService,sans-serif" font-weight="700" font-size="44" transform="matrix(1 0 0 1 1386.86 244)">Critical Sector Entity</text><rect x="405" y="192" width="395" height="66.9997" stroke="#00B050" stroke-width="2.29167" stroke-linejoin="round" stroke-miterlimit="10" fill="none"/><text fill="#2AA82A" font-family="Arial,Arial_MSFontService,sans-serif" font-weight="700" font-size="44" transform="matrix(1 0 0 1 437.897 242)">National Bodies</text><path d="M806.5 412.792 802.771 412.792 805.063 410.5 805.063 426.5 802.771 424.208 1362.58 424.208 1362.58 428.792 802.771 428.792C801.505 428.792 800.479 427.766 800.479 426.5L800.479 410.5C800.479 409.234 801.505 408.208 802.771 408.208L806.5 408.208ZM1358 412.75 1385.5 426.5 1358 440.25Z"/><path d="M1318.5 222.002C1318.5 169.81 1360.81 127.5 1413 127.5L1791 127.5C1843.19 127.5 1885.5 169.81 1885.5 222.002L1885.5 784.999C1885.5 837.19 1843.19 879.5 1791 879.5L1413 879.5C1360.81 879.5 1318.5 837.19 1318.5 784.999Z" stroke="#1E3AF8" stroke-width="9.16667" stroke-linejoin="round" stroke-miterlimit="10" stroke-dasharray="36.6667 27.5" fill="none" fill-rule="evenodd"/><rect x="511" y="297" width="288" height="254" stroke="#00B050" stroke-width="2.29167" stroke-linejoin="round" stroke-miterlimit="10" fill="none"/><text fill="#2AA82A" font-family="Arial,Arial_MSFontService,sans-serif" font-weight="400" font-size="38" transform="matrix(1 0 0 1 586.232 341)">Sectoral </text><text fill="#2AA82A" font-family="Arial,Arial_MSFontService,sans-serif" font-weight="400" font-size="38" transform="matrix(1 0 0 1 569.044 386)">Regulator,</text><text fill="#2AA82A" font-family="Arial,Arial_MSFontService,sans-serif" font-weight="400" font-size="38" transform="matrix(1 0 0 1 552.132 431)">Government </text><text fill="#2AA82A" font-family="Arial,Arial_MSFontService,sans-serif" font-weight="400" font-size="38" transform="matrix(1 0 0 1 599.982 476)">Board,</text><text fill="#2AA82A" font-family="Arial,Arial_MSFontService,sans-serif" font-weight="400" font-size="38" transform="matrix(1 0 0 1 531.232 521)">Govt. Authority</text><path d="M359.5 207.335C359.5 163.243 395.243 127.5 439.335 127.5L758.665 127.5C802.757 127.5 838.5 163.243 838.5 207.335L838.5 799.665C838.5 843.757 802.757 879.5 758.665 879.5L439.335 879.5C395.243 879.5 359.5 843.757 359.5 799.665Z" stroke="#00B050" stroke-width="9.16667" stroke-linejoin="round" stroke-miterlimit="10" stroke-dasharray="36.6667 27.5" fill="none" fill-rule="evenodd"/><text font-family="Arial,Arial_MSFontService,sans-serif" font-style="italic" font-weight="400" font-size="38" transform="matrix(1 0 0 1 979.569 362)">regulates,</text><text font-family="Arial,Arial_MSFontService,sans-serif" font-style="italic" font-weight="400" font-size="38" transform="matrix(1 0 0 1 965.521 407)">administers</text><rect x="2457.5" y="169.5" width="317" height="124" stroke="#000000" stroke-width="3.4375" stroke-linejoin="round" stroke-miterlimit="10" fill="none"/><text fill="#1E3AF8" font-family="Arial,Arial_MSFontService,sans-serif" font-weight="700" font-size="38" transform="matrix(1 0 0 1 2570.44 222)">Other </text><text fill="#1E3AF8" font-family="Arial,Arial_MSFontService,sans-serif" font-weight="700" font-size="38" transform="matrix(1 0 0 1 2547.53 267)">Entities</text><rect x="2457.5" y="356.5" width="317" height="124" stroke="#000000" stroke-width="3.4375" stroke-linejoin="round" stroke-miterlimit="10" fill="none"/><text fill="#1E3AF8" font-family="Arial,Arial_MSFontService,sans-serif" font-weight="700" font-size="38" transform="matrix(1 0 0 1 2517.73 409)">Customers, </text><text fill="#1E3AF8" font-family="Arial,Arial_MSFontService,sans-serif" font-weight="700" font-size="38" transform="matrix(1 0 0 1 2563.57 454)">Users</text><path d="M1872.42 226.883 2434.06 229.374 2434.04 232.812 1872.41 230.32ZM1876.94 242.372 1849.5 228.5 1877.06 214.872ZM2429.53 217.323 2456.97 231.195 2429.41 244.822Z"/><text font-family="Arial,Arial_MSFontService,sans-serif" font-style="italic" font-weight="400" font-size="38" transform="matrix(1 0 0 1 2060.68 206)">interact</text><path d="M1885.5 416.781 2433.95 416.781 2433.95 420.219 1885.5 420.219ZM2429.37 404.75 2456.87 418.5 2429.37 432.25Z"/><text font-family="Arial,Arial_MSFontService,sans-serif" font-style="italic" font-weight="400" font-size="38" transform="matrix(1 0 0 1 1995.94 392)">provide service</text><rect x="2447.5" y="543.5" width="397" height="124" stroke="#000000" stroke-width="3.4375" stroke-linejoin="round" stroke-miterlimit="10" fill="none"/><text font-family="Arial,Arial_MSFontService,sans-serif" font-weight="400" font-size="38" transform="matrix(1 0 0 1 2507.65 596)">Service Provider </text><text font-family="Arial,Arial_MSFontService,sans-serif" font-weight="400" font-size="38" transform="matrix(1 0 0 1 2529.99 641)">Organisations</text><path d="M1.11281e-06-1.71875 534.485-1.7184 534.485 1.7191-1.11281e-06 1.71875ZM529.902-13.7497 557.402 0.000360892 529.902 13.7503Z" transform="matrix(-1 0 0 1 2446.9 605.5)"/><text font-family="Arial,Arial_MSFontService,sans-serif" font-style="italic" font-weight="400" font-size="38" transform="matrix(1 0 0 1 2010.78 531)">design, implement, </text><text font-family="Arial,Arial_MSFontService,sans-serif" font-style="italic" font-weight="400" font-size="38" transform="matrix(1 0 0 1 1954.64 576)">operate, manage, support</text><rect x="2427.5" y="732.5" width="417" height="124" stroke="#000000" stroke-width="3.4375" stroke-linejoin="round" stroke-miterlimit="10" fill="none"/><text font-family="Arial,Arial_MSFontService,sans-serif" font-weight="400" font-size="38" transform="matrix(1 0 0 1 2466.51 785)">Business Processes </text><text font-family="Arial,Arial_MSFontService,sans-serif" font-weight="400" font-size="38" transform="matrix(1 0 0 1 2530.38 830)">Audit </text><text font-family="Arial,Arial_MSFontService,sans-serif" font-weight="400" font-size="38" transform="matrix(1 0 0 1 2626.06 830)">Bodies</text><path d="M0.0102451-1.71872 518.955 1.37466 518.934 4.8121-0.0102451 1.71872ZM514.444-10.6837 541.862 3.22999 514.28 16.8158Z" transform="matrix(-1 0 0 1 2427.36 794.5)"/><text font-family="Arial,Arial_MSFontService,sans-serif" font-style="italic" font-weight="400" font-size="38" transform="matrix(1 0 0 1 1954.84 722)">audit the</text><text font-family="Arial,Arial_MSFontService,sans-serif" font-style="italic" font-weight="400" font-size="38" transform="matrix(1 0 0 1 2107.81 722)">implementation </text><text font-family="Arial,Arial_MSFontService,sans-serif" font-style="italic" font-weight="400" font-size="38" transform="matrix(1 0 0 1 1944.82 767)">and operation of business</text></g></svg>