<svg width="2854" height="1135" xmlns="http://www.w3.org/2000/svg" xmlns:xlink="http://www.w3.org/1999/xlink" xml:space="preserve" overflow="hidden"><g transform="translate(-774 -575)"><path d="M776.662 578.286 1327.38 578.286 1327.38 763.893 776.662 763.893Z" fill="#D9D9D9" fill-rule="evenodd"/><path d="M1327.38 578.286 3623.34 578.286 3623.34 763.893 1327.38 763.893Z" fill="#D9D9D9" fill-rule="evenodd"/><path d="M1327.38 575.994 1327.38 1694.22" stroke="#000000" stroke-width="4.58333" stroke-linejoin="round" stroke-miterlimit="10" fill="none" fill-rule="evenodd"/><path d="M774.37 763.893 3625.63 763.893" stroke="#000000" stroke-width="4.58333" stroke-linejoin="round" stroke-miterlimit="10" fill="none" fill-rule="evenodd"/><path d="M774.37 949.501 3625.63 949.501" stroke="#000000" stroke-width="4.58333" stroke-linejoin="round" stroke-miterlimit="10" fill="none" fill-rule="evenodd"/><path d="M774.37 1135.11 3625.63 1135.11" stroke="#000000" stroke-width="4.58333" stroke-linejoin="round" stroke-miterlimit="10" fill="none" fill-rule="evenodd"/><path d="M774.37 1320.72 3625.63 1320.72" stroke="#000000" stroke-width="4.58333" stroke-linejoin="round" stroke-miterlimit="10" fill="none" fill-rule="evenodd"/><path d="M774.37 1506.32 3625.63 1506.32" stroke="#000000" stroke-width="4.58333" stroke-linejoin="round" stroke-miterlimit="10" fill="none" fill-rule="evenodd"/><path d="M776.662 575.994 776.662 1694.22" stroke="#000000" stroke-width="4.58333" stroke-linejoin="round" stroke-miterlimit="10" fill="none" fill-rule="evenodd"/><path d="M3623.34 575.994 3623.34 1694.22" stroke="#000000" stroke-width="4.58333" stroke-linejoin="round" stroke-miterlimit="10" fill="none" fill-rule="evenodd"/><path d="M774.37 578.286 3625.63 578.286" stroke="#000000" stroke-width="4.58333" stroke-linejoin="round" stroke-miterlimit="10" fill="none" fill-rule="evenodd"/><path d="M774.37 1691.93 3625.63 1691.93" stroke="#000000" stroke-width="4.58333" stroke-linejoin="round" stroke-miterlimit="10" fill="none" fill-rule="evenodd"/><text font-family="Arial,Arial_MSFontService,sans-serif" font-weight="400" font-size="92" transform="matrix(1 0 0 1 2159.31 705)">Tag Description</text><text font-family="Arial,Arial_MSFontService,sans-serif" font-weight="400" font-size="92" transform="matrix(1 0 0 1 978.033 705)">Tag</text><g><text font-family="Arial,Arial_MSFontService,sans-serif" font-weight="400" font-size="92" transform="matrix(1 0 0 1 1340.67 891)">Ingress into/ egress from a low trust zone</text></g><g><text fill="#FF9900" font-family="Arial,Arial_MSFontService,sans-serif" font-weight="400" font-size="92" transform="matrix(1 0 0 1 789.954 891)">PTL1</text></g><g><text font-family="Arial,Arial_MSFontService,sans-serif" font-weight="400" font-size="92" transform="matrix(1 0 0 1 1340.67 1076)">Ingress into/ egress from a standard trust zone</text></g><g><text fill="#1E3AF8" font-family="Arial,Arial_MSFontService,sans-serif" font-weight="400" font-size="92" transform="matrix(1 0 0 1 789.954 1076)">PTL2</text></g><g><text font-family="Arial,Arial_MSFontService,sans-serif" font-weight="400" font-size="92" transform="matrix(1 0 0 1 1340.67 1262)">Ingress into/ egress from an enhanced trust zone</text></g><g><text fill="#009900" font-family="Arial,Arial_MSFontService,sans-serif" font-weight="400" font-size="92" transform="matrix(1 0 0 1 789.954 1262)">PTL3</text></g><g><text font-family="Arial,Arial_MSFontService,sans-serif" font-weight="400" font-size="92" transform="matrix(1 0 0 1 1340.67 1448)">Ingress into/ egress from a high trust zone</text></g><g><text fill="#CC00FF" font-family="Arial,Arial_MSFontService,sans-serif" font-weight="400" font-size="92" transform="matrix(1 0 0 1 789.954 1448)">PTL4</text></g><g><text font-family="Arial,Arial_MSFontService,sans-serif" font-weight="400" font-size="92" transform="matrix(1 0 0 1 1340.67 1633)">Ingress into/ egress from a very high trust zone</text></g><g><text fill="#CC00FF" font-family="Arial,Arial_MSFontService,sans-serif" font-weight="400" font-size="92" transform="matrix(1 0 0 1 789.954 1633)">PTL5</text></g></g></svg>