<svg width="3644" height="1315" xmlns="http://www.w3.org/2000/svg" xmlns:xlink="http://www.w3.org/1999/xlink" xml:space="preserve" overflow="hidden"><g transform="translate(-318 -421)"><path d="M320.571 424.286 1235.14 424.286 1235.14 641.143 320.571 641.143Z" fill="#D9D9D9" fill-rule="evenodd"/><path d="M1235.14 424.286 3956.86 424.286 3956.86 641.143 1235.14 641.143Z" fill="#D9D9D9" fill-rule="evenodd"/><path d="M1235.14 421.994 1235.14 1726.46" stroke="#000000" stroke-width="4.58333" stroke-linejoin="round" stroke-miterlimit="10" fill="none" fill-rule="evenodd"/><path d="M318.28 641.143 3959.15 641.143" stroke="#000000" stroke-width="4.58333" stroke-linejoin="round" stroke-miterlimit="10" fill="none" fill-rule="evenodd"/><path d="M318.28 873.714 3959.15 873.714" stroke="#000000" stroke-width="4.58333" stroke-linejoin="round" stroke-miterlimit="10" fill="none" fill-rule="evenodd"/><path d="M318.28 1109.43 3959.15 1109.43" stroke="#000000" stroke-width="4.58333" stroke-linejoin="round" stroke-miterlimit="10" fill="none" fill-rule="evenodd"/><path d="M318.28 1416.8 3959.15 1416.8" stroke="#000000" stroke-width="4.58333" stroke-linejoin="round" stroke-miterlimit="10" fill="none" fill-rule="evenodd"/><path d="M320.571 421.994 320.571 1726.46" stroke="#000000" stroke-width="4.58333" stroke-linejoin="round" stroke-miterlimit="10" fill="none" fill-rule="evenodd"/><path d="M3956.86 421.994 3956.86 1726.46" stroke="#000000" stroke-width="4.58333" stroke-linejoin="round" stroke-miterlimit="10" fill="none" fill-rule="evenodd"/><path d="M318.28 424.286 3959.15 424.286" stroke="#000000" stroke-width="4.58333" stroke-linejoin="round" stroke-miterlimit="10" fill="none" fill-rule="evenodd"/><path d="M318.28 1724.17 3959.15 1724.17" stroke="#000000" stroke-width="4.58333" stroke-linejoin="round" stroke-miterlimit="10" fill="none" fill-rule="evenodd"/><text font-family="Arial,Arial_MSFontService,sans-serif" font-weight="400" font-size="92" transform="matrix(1 0 0 1 2249.39 567)">Zone Description</text><text font-family="Arial,Arial_MSFontService,sans-serif" font-weight="400" font-size="92" transform="matrix(1 0 0 1 562.074 567)">Zone Type</text><g><text font-family="Arial,Arial_MSFontService,sans-serif" font-weight="400" font-size="92" transform="matrix(1 0 0 1 1248.43 791)">Untrusted Connectivity Zone, Private owned, Public Internet</text></g><g><text fill="#FF0000" font-family="Arial,Arial_MSFontService,sans-serif" font-weight="400" font-size="92" transform="matrix(1 0 0 1 333.863 791)">Connectivity VD, XD</text></g><g><text font-family="Arial,Arial_MSFontService,sans-serif" font-weight="400" font-size="92" transform="matrix(1 0 0 1 1248.43 1026)">Low Trust Connectivity Zone, Private owned, Extranet</text></g><g><text fill="#FF9900" font-family="Arial,Arial_MSFontService,sans-serif" font-weight="400" font-size="92" transform="matrix(1 0 0 1 333.863 1026)">Connectivity VC, XC</text></g><g><text font-family="Arial,Arial_MSFontService,sans-serif" font-weight="400" font-size="92" transform="matrix(1 0 0 1 1248.43 1242)">Standard Trust Connectivity Zone, GOE owned, Intranet, DC </text></g><g><text font-family="Arial,Arial_MSFontService,sans-serif" font-weight="400" font-size="92" transform="matrix(1 0 0 1 1248.43 1352)">networking</text></g><g><text fill="#1E3AF8" font-family="Arial,Arial_MSFontService,sans-serif" font-weight="400" font-size="92" transform="matrix(1 0 0 1 333.863 1297)">Connectivity VB, XB</text></g><g><text font-family="Arial,Arial_MSFontService,sans-serif" font-weight="400" font-size="92" transform="matrix(1 0 0 1 1248.43 1549)">Enhanced Trust Connectivity Zone, Entity owned, Closed Group </text></g><g><text font-family="Arial,Arial_MSFontService,sans-serif" font-weight="400" font-size="92" transform="matrix(1 0 0 1 1248.43 1659)">Network</text></g><g><text fill="#009900" font-family="Arial,Arial_MSFontService,sans-serif" font-weight="400" font-size="92" transform="matrix(1 0 0 1 333.863 1604)">Connectivity VA, XA</text></g></g></svg>